<svg width="229" height="358" viewBox="0 0 229 358" fill="none" xmlns="http://www.w3.org/2000/svg">
<path d="M335.883 -28L335.883 185.645L335.403 185.666C331.739 185.826 328.024 185.907 324.362 185.907C244.062 185.907 199.553 152.416 156.509 120.027C113.505 87.668 69.0371 54.207 -11.2763 54.207C-147.306 54.207 -184.925 117.853 -224.754 185.235C-241.076 212.853 -257.957 241.412 -282.137 266.624L-283 267.524L-283 -28L335.883 -28ZM334.881 184.687L334.881 -27.001L-281.997 -27.001L-281.997 265.027C-258.357 240.121 -241.717 211.966 -225.616 184.727C-185.638 117.091 -147.879 53.206 -11.2754 53.206C69.374 53.206 113.979 86.769 157.115 119.228C200.026 151.517 244.399 184.906 324.363 184.906C327.851 184.906 331.386 184.833 334.881 184.687Z" fill="#FCFCFD"/>
<path d="M508.883 -98.999L508.883 250.645L508.403 250.666C504.739 250.826 501.024 250.907 497.362 250.907C417.062 250.907 372.553 217.416 329.509 185.027C286.505 152.668 242.037 119.207 161.724 119.207C25.6939 119.207 -11.9253 182.853 -51.7537 250.235C-68.0759 277.853 -84.9566 306.412 -109.137 331.624L-110 332.524L-110 -98.999L508.883 -98.999ZM507.881 249.687L507.881 -98L-108.997 -98L-108.997 330.027C-85.3567 305.121 -68.7166 276.966 -52.616 249.727C-12.6383 182.091 25.1213 118.206 161.725 118.206C242.374 118.206 286.979 151.769 330.115 184.228C373.026 216.517 417.399 249.906 497.364 249.906C500.851 249.906 504.386 249.833 507.881 249.687Z" fill="#FCFCFD"/>
<path d="M335.316 299.304L333.988 296.101C325.613 275.903 313.869 257.348 299.083 240.953C240.453 175.943 181.92 177.996 125.315 179.98C68.5057 181.972 9.76262 184.033 -49.1277 118.734C-56.3701 110.704 -62.9678 102.046 -68.7342 93.0014L-68.9623 92.644L-66.658 90.5658L-66.4562 90.5715C-31.6564 91.6384 0.799204 85.0592 32.1854 78.6964C99.5642 65.0369 163.205 52.1352 238.997 116.16C250.368 125.765 261.944 137.078 273.403 149.784C321.495 203.109 330.389 253.147 334.948 295.859L335.316 299.304ZM-67.6617 92.8214C-61.9793 101.69 -55.4952 110.181 -48.3851 118.064C10.1916 183.015 68.696 180.963 125.276 178.979C182.111 176.986 240.881 174.926 299.825 240.284C313.923 255.915 325.269 273.502 333.585 292.598C328.917 250.788 319.294 202.163 272.66 150.455C261.231 137.782 249.688 126.501 238.352 116.925C162.93 53.214 99.5202 66.0691 32.3857 79.6784C1.00302 86.0408 -31.4433 92.6183 -66.2834 91.5783L-67.661 92.8207L-67.6617 92.8214Z" fill="#FCFCFD"/>
</svg>
