<svg viewBox="0 0 100 100" xmlns="http://www.w3.org/2000/svg">
  <defs>
    <!-- Brand gradient -->
    <linearGradient id="brandGradient" x1="0%" y1="0%" x2="100%" y2="100%">
      <stop offset="0%" stop-color="#a78bfa"/>
      <stop offset="100%" stop-color="#f472b6"/>
    </linearGradient>
    
    <!-- Simple shadow -->
    <filter id="simpleShadow" x="-20%" y="-20%" width="140%" height="140%">
      <feDropShadow dx="0" dy="2" stdDeviation="4" flood-color="#000" flood-opacity="0.1"/>
    </filter>
  </defs>

  <!-- Better circle background with subtle pattern - full size -->
  <circle cx="50" cy="50" r="50" fill="#0f172a" filter="url(#simpleShadow)"/>
  <circle cx="50" cy="50" r="47" fill="url(#brandGradient)" opacity="0.15"/>
  
  <!-- Glowing border -->
  <circle cx="50" cy="50" r="47" fill="none" stroke="url(#brandGradient)" stroke-width="2" opacity="0.6"/>
  <circle cx="50" cy="50" r="45" fill="none" stroke="#ffffff" stroke-width="0.5" opacity="0.2"/>
  
  <!-- Chef Hat - bigger and more centered -->
  <g transform="translate(50,50) scale(1.3) translate(-50,-50)">
    <path d="M30 45 Q30 35 40 35 Q45 30 50 30 Q55 30 60 35 Q70 35 70 45 Q70 50 65 50 L65 60 Q65 65 60 65 L40 65 Q35 65 35 60 L35 50 Q30 50 30 45 Z"
          fill="#ffffff" stroke="#e2e8f0" stroke-width="2"/>
    <!-- Subtle highlight on hat -->
    <ellipse cx="45" cy="42" rx="3" ry="2" fill="#ffffff" opacity="0.7"/>
    <!-- Code symbol -->
    <text x="50" y="54" text-anchor="middle"
          font-family="JetBrains Mono, Menlo, Consolas, monospace"
          font-size="14" font-weight="700" fill="url(#brandGradient)">
      &lt;/&gt;
    </text>
  </g>
</svg>
